<svg xmlns="http://www.w3.org/2000/svg" width="433.863" height="323.28" viewBox="0 0 433.863 323.28">
  <g id="Messenger-rafiki" transform="translate(0 -55)">
    <g id="freepik--background-complete--inject-2" transform="translate(0 55)">
      <rect id="Rectangle_656" data-name="Rectangle 656" width="433.863" height="0.217" transform="translate(0 284.094)" fill="#ebebeb"/>
      <rect id="Rectangle_657" data-name="Rectangle 657" width="28.739" height="0.217" transform="translate(361.651 298.055)" fill="#ebebeb"/>
      <rect id="Rectangle_658" data-name="Rectangle 658" width="7.541" height="0.217" transform="translate(279.868 300.415)" fill="#ebebeb"/>
      <rect id="Rectangle_659" data-name="Rectangle 659" width="16.652" height="0.217" transform="translate(344.132 290.003)" fill="#ebebeb"/>
      <rect id="Rectangle_660" data-name="Rectangle 660" width="37.477" height="0.217" transform="translate(45.521 291.461)" fill="#ebebeb"/>
      <rect id="Rectangle_661" data-name="Rectangle 661" width="5.493" height="0.217" transform="translate(90.729 291.461)" fill="#ebebeb"/>
      <rect id="Rectangle_662" data-name="Rectangle 662" width="81.289" height="0.217" transform="translate(114.08 295.122)" fill="#ebebeb"/>
      <path id="Path_11206" data-name="Path 11206" d="M210.705,300.393H43.156a4.955,4.955,0,0,1-4.946-4.955V59.911A4.955,4.955,0,0,1,43.156,55H210.705a4.955,4.955,0,0,1,4.955,4.955V295.438A4.955,4.955,0,0,1,210.705,300.393ZM43.156,55.174a4.738,4.738,0,0,0-4.729,4.738V295.438a4.738,4.738,0,0,0,4.729,4.738H210.705a4.747,4.747,0,0,0,4.738-4.738V59.911a4.746,4.746,0,0,0-4.738-4.738Z" transform="translate(-5.054 -55)" fill="#ebebeb"/>
      <path id="Path_11207" data-name="Path 11207" d="M427.013,300.393H259.455a4.963,4.963,0,0,1-4.955-4.955V59.911A4.963,4.963,0,0,1,259.455,55H427.013a4.955,4.955,0,0,1,4.937,4.911V295.438A4.955,4.955,0,0,1,427.013,300.393ZM259.455,55.174a4.746,4.746,0,0,0-4.738,4.738V295.438a4.746,4.746,0,0,0,4.738,4.738H427.013a4.747,4.747,0,0,0,4.738-4.738V59.911a4.746,4.746,0,0,0-4.738-4.738Z" transform="translate(-33.664 -55)" fill="#ebebeb"/>
      <rect id="Rectangle_663" data-name="Rectangle 663" width="260.951" height="139.678" transform="translate(192.418 23.142) rotate(90)" fill="#e6e6e6"/>
      <rect id="Rectangle_664" data-name="Rectangle 664" width="17.398" height="3.245" transform="translate(195.664 68.195) rotate(90)" fill="#e0e0e0"/>
      <rect id="Rectangle_665" data-name="Rectangle 665" width="17.398" height="3.245" transform="translate(195.664 226.216) rotate(90)" fill="#e0e0e0"/>
      <rect id="Rectangle_666" data-name="Rectangle 666" width="260.951" height="83.944" transform="translate(279.607 23.142) rotate(90)" fill="#f0f0f0"/>
      <rect id="Rectangle_667" data-name="Rectangle 667" width="239.171" height="62.164" transform="translate(268.717 34.032) rotate(90)" fill="none" stroke="#e6e6e6" stroke-miterlimit="10" stroke-width="1.046"/>
      <rect id="Rectangle_668" data-name="Rectangle 668" width="260.951" height="4.313" transform="translate(283.911 23.134) rotate(90)" fill="#e6e6e6"/>
      <rect id="Rectangle_669" data-name="Rectangle 669" width="121.525" height="251.875" transform="translate(61.817 32.219)" fill="#f5f5f5"/>
      <path id="Path_11208" data-name="Path 11208" d="M119.112,144.273A8.113,8.113,0,0,0,111,136.221a8.026,8.026,0,0,0-3.037.59,9.814,9.814,0,0,0-18.4,2.169,8.443,8.443,0,0,0,.547,16.869h26.9a5.987,5.987,0,0,0,2.126-11.575Z" transform="translate(-10.802 -65.093)" fill="#fff"/>
      <path id="Path_11209" data-name="Path 11209" d="M159.937,120.984a6.829,6.829,0,0,1,9.406-6.282,8.269,8.269,0,0,1,15.506,1.831,7.115,7.115,0,0,1-.46,14.213H161.733a5.05,5.05,0,0,1-1.8-9.762Z" transform="translate(-20.728 -62.282)" fill="#fff"/>
      <rect id="Rectangle_670" data-name="Rectangle 670" width="121.525" height="49.174" transform="translate(61.817 234.919)" fill="#fafafa"/>
      <path id="Path_11210" data-name="Path 11210" d="M155.739,284.885c-9.016,7.888-28.635,33.668-43.438,13.406S71.24,271.47,71.24,271.47v47.083H192.765v-36.21S171.063,271.47,155.739,284.885Z" transform="translate(-9.423 -83.633)" fill="#ebebeb"/>
      <path id="Path_11211" data-name="Path 11211" d="M314.923,218.392a3.532,3.532,0,1,1-3.532-3.532,3.532,3.532,0,0,1,3.532,3.532Z" transform="translate(-40.722 -76.145)" fill="#e0e0e0"/>
      <path id="Path_11212" data-name="Path 11212" d="M311.02,218.044a5.805,5.805,0,1,1-5.805-5.814,5.805,5.805,0,0,1,5.805,5.814Z" transform="translate(-39.604 -75.797)" fill="#e6e6e6"/>
      <path id="Path_11213" data-name="Path 11213" d="M415.465,256.555c1.666-38.536,2.82-101.09,1.952-121.968a3.809,3.809,0,0,0-.469-1.814h0c-.772-1.258-1.857,0-1.831,2.161.165,10.361.347,36.254-.642,80.933-.495,22.24-1.206,37.468-.72,40.688Z" transform="translate(-54.708 -65.221)" fill="#f0f0f0"/>
      <path id="Path_11214" data-name="Path 11214" d="M420.81,180.844c3.974-10.413,12.1-17.858,20.392-17.814,3.245,0-9.9,12.148-15.367,25.52a219.557,219.557,0,0,0-10.664,37.59C416.229,205.713,416.827,191.283,420.81,180.844Z" transform="translate(-54.916 -69.29)" fill="#f0f0f0"/>
      <path id="Path_11215" data-name="Path 11215" d="M408.5,180.191c-3.939-11.471-13.016-20.3-22.873-21.3-3.861-.39,10.829,14.014,16.313,28.774,4.261,11.471,8.677,30.466,9.831,40.879C412.054,206.926,412.427,191.672,408.5,180.191Z" transform="translate(-50.923 -68.741)" fill="#f0f0f0"/>
      <path id="Path_11216" data-name="Path 11216" d="M420.81,200.163c3.974-10.413,12.1-17.858,20.392-17.823,3.245,0-9.9,12.148-15.367,25.528A219.693,219.693,0,0,0,415.17,245.45C416.229,225.032,416.827,210.6,420.81,200.163Z" transform="translate(-54.916 -71.844)" fill="#f0f0f0"/>
      <path id="Path_11217" data-name="Path 11217" d="M408.5,200.591c-3.939-11.48-13.016-20.3-22.873-21.3-3.861-.39,10.829,14.014,16.313,28.774,4.261,11.463,8.677,30.457,9.831,40.879C412.054,227.326,412.427,212.072,408.5,200.591Z" transform="translate(-50.923 -71.439)" fill="#f0f0f0"/>
      <path id="Path_11218" data-name="Path 11218" d="M420.362,135.9c2.6-7.757,8.183-13.806,14.014-14.63,2.291-.33-6.734,9.545-10.335,19.524a169.138,169.138,0,0,0-6.812,27.542C417.594,153.861,417.751,143.647,420.362,135.9Z" transform="translate(-55.189 -63.765)" fill="#f0f0f0"/>
      <path id="Path_11219" data-name="Path 11219" d="M412.335,139.611c-2.768-8.087-9.181-14.309-16.114-15.012-2.725-.269,7.636,9.875,11.5,20.279a152.831,152.831,0,0,1,6.942,28.809C414.851,158.458,415.112,147.707,412.335,139.611Z" transform="translate(-52.35 -64.205)" fill="#f0f0f0"/>
      <path id="Path_11220" data-name="Path 11220" d="M421.141,147.42c3.367-8.833,10.257-15.124,17.268-15.09,2.751,0-8.382,10.283-13.016,21.615a185.247,185.247,0,0,0-9.033,31.828C417.262,168.488,417.783,156.253,421.141,147.42Z" transform="translate(-55.074 -65.229)" fill="#f0f0f0"/>
      <path id="Path_11221" data-name="Path 11221" d="M410.965,152.389c-3.332-9.719-11.037-17.19-19.368-18.04-3.271-.33,9.172,11.87,13.823,24.366a184.184,184.184,0,0,1,8.322,34.614C413.968,175.028,414.28,162.108,410.965,152.389Z" transform="translate(-51.727 -65.495)" fill="#f0f0f0"/>
      <path id="Path_11222" data-name="Path 11222" d="M421.346,161.369c3.636-9.545,11.064-16.313,18.63-16.279,2.968,0-9.042,11.09-14.031,23.316a198.535,198.535,0,0,0-9.745,34.336C417.163,184.06,417.71,170.9,421.346,161.369Z" transform="translate(-55.052 -66.917)" fill="#f0f0f0"/>
      <path id="Path_11223" data-name="Path 11223" d="M410.011,166.816c-3.705-10.795-12.252-19.09-21.5-20.027-3.636-.373,10.178,13.172,15.341,27.047a204.291,204.291,0,0,1,9.241,38.432C413.36,191.945,413.707,177.6,410.011,166.816Z" transform="translate(-51.31 -67.14)" fill="#f0f0f0"/>
      <path id="Path_11224" data-name="Path 11224" d="M403.05,268.283l.59,9.467c.061,2.117.981,3.775,2.091,3.775h14.751c1.111,0,2.03-1.657,2.1-3.775l.581-9.467c.069-2.3-.868-4.243-2.091-4.243H405.15C403.944,264.005,403.006,265.984,403.05,268.283Z" transform="translate(-53.313 -82.65)" fill="#e6e6e6"/>
      <path id="Path_11225" data-name="Path 11225" d="M401.829,269.5h21.91c.321,0,.59-.46.633-1.076l.521-9.016c0-.712-.252-1.336-.633-1.336H401.334c-.373,0-.668.625-.625,1.336l.521,9.016C401.265,269.038,401.534,269.5,401.829,269.5Z" transform="translate(-53.003 -81.861)" fill="#f5f5f5"/>
      <rect id="Rectangle_671" data-name="Rectangle 671" width="15.715" height="85.211" transform="translate(390.668 198.874)" fill="#e6e6e6"/>
      <path id="Path_11226" data-name="Path 11226" d="M462.147,379.915h4.712v-16.3H457.21Z" transform="translate(-60.477 -95.821)" fill="#f0f0f0"/>
      <rect id="Rectangle_672" data-name="Rectangle 672" width="15.715" height="85.211" transform="translate(301.509 198.874)" fill="#e6e6e6"/>
      <rect id="Rectangle_673" data-name="Rectangle 673" width="93.272" height="75.206" transform="translate(313.11 198.874)" fill="#f0f0f0"/>
      <path id="Path_11227" data-name="Path 11227" d="M365.552,379.915H360.84v-16.3h9.649Z" transform="translate(-47.73 -95.821)" fill="#f0f0f0"/>
      <rect id="Rectangle_674" data-name="Rectangle 674" width="85.966" height="30.093" transform="translate(316.763 204.167)" fill="#e6e6e6"/>
      <path id="Path_11228" data-name="Path 11228" d="M425.721,299.505H399.368c-4.59,0-8.99-3.714-12.148-10.265h50.658C434.754,295.791,430.32,299.505,425.721,299.505Z" transform="translate(-51.219 -85.984)" fill="#f0f0f0"/>
      <rect id="Rectangle_675" data-name="Rectangle 675" width="85.966" height="30.093" transform="translate(316.763 239.128)" fill="#e6e6e6"/>
      <path id="Path_11229" data-name="Path 11229" d="M425.721,339.8H399.368c-4.59,0-8.99-3.714-12.148-10.265h50.658C434.754,336.081,430.32,339.8,425.721,339.8Z" transform="translate(-51.219 -91.313)" fill="#f0f0f0"/>
    </g>
    <g id="freepik--Shadow--inject-2" transform="translate(48.688 358.635)">
      <ellipse id="freepik--path--inject-2" cx="168.243" cy="9.823" rx="168.243" ry="9.823" fill="#f5f5f5"/>
    </g>
    <g id="freepik--character-2--inject-2" transform="translate(242.447 103.166)">
      <path id="Path_11230" data-name="Path 11230" d="M337.66,125.449c-.1.512-.46.868-.8.807s-.521-.538-.417-1.05.46-.868.8-.807S337.791,124.92,337.66,125.449Z" transform="translate(-286.946 -112.345)" fill="#263238"/>
      <path id="Path_11231" data-name="Path 11231" d="M336.861,126.63a18.935,18.935,0,0,1-3.341,3.9,3.011,3.011,0,0,0,2.36.954Z" transform="translate(-286.563 -112.641)" fill="#ed893e"/>
      <path id="Path_11232" data-name="Path 11232" d="M340.27,122.533a.312.312,0,0,0,.226-.521,3.046,3.046,0,0,0-2.6-1.015.312.312,0,1,0,.1.607h0a2.438,2.438,0,0,1,2.056.868.3.3,0,0,0,.217.061Z" transform="translate(-287.1 -111.894)" fill="#263238"/>
      <path id="Path_11233" data-name="Path 11233" d="M352.1,136.38c-.928,4.755-1.492,11.333,1.831,14.508,0,0-1.3,4.816-10.126,4.816-9.71,0-4.668-4.226-4.668-4.226,4.035-1.258,4-5.848,3.072-9.545Z" transform="translate(-287.134 -113.931)" fill="#ffb573"/>
      <path id="Path_11234" data-name="Path 11234" d="M338.41,153.954s1.085-3.349,2.187-3.931,12.851-2.091,14.474-.755-2.03,5.623-2.03,5.623Z" transform="translate(-287.21 -115.564)" fill="#263238"/>
      <path id="Path_11235" data-name="Path 11235" d="M332.7,408.762c-.868,0-1.631-.113-1.866-.495a.573.573,0,0,1,.069-.668.79.79,0,0,1,.512-.356c1.1-.3,3.271,1,3.358,1.05a.156.156,0,0,1,.069.156.174.174,0,0,1-.139.13A12,12,0,0,1,332.7,408.762Zm-.868-1.276a1.057,1.057,0,0,0-.3,0,.477.477,0,0,0-.321.217c-.121.191-.1.278-.061.338.269.417,1.909.425,3.132.26a6.413,6.413,0,0,0-2.456-.816Z" transform="translate(-286.198 -149.753)" fill="#ca1221"/>
      <path id="Path_11236" data-name="Path 11236" d="M334.981,408.323h-.061c-.755-.356-2.2-1.735-2.013-2.49,0-.174.174-.391.607-.434a1.059,1.059,0,0,1,.824.26,4.1,4.1,0,0,1,.807,2.508.165.165,0,0,1-.165.165Zm-1.371-2.6h-.1c-.278,0-.3.139-.312.174-.1.443.868,1.545,1.623,2.03a3.367,3.367,0,0,0-.694-2,.755.755,0,0,0-.521-.226Z" transform="translate(-286.48 -149.514)" fill="#ca1221"/>
      <path id="Path_11237" data-name="Path 11237" d="M342.551,406.3H336.06l.581-15.038h6.491Z" transform="translate(-286.899 -147.644)" fill="#ffb573"/>
      <path id="Path_11238" data-name="Path 11238" d="M334.144,407.73h7.089a.512.512,0,0,1,.521.443l.807,5.77a1.033,1.033,0,0,1-1.024,1.154c-2.56-.043-6.239-.191-9.458-.191-3.757,0-4.234.208-8.677.208-2.664,0-3.185-2.7-2.048-2.942,5.206-1.111,6.534-1.232,11.15-3.939a3.2,3.2,0,0,1,1.64-.5Z" transform="translate(-284.879 -149.823)" fill="#263238"/>
      <path id="Path_11239" data-name="Path 11239" d="M313.067,172.52a1.822,1.822,0,0,1,.946,1.527l.043,1.449a1.779,1.779,0,0,1-1.093,1.735l-2.916,1.224a3.991,3.991,0,0,1-2.6.156l-3.671-1.05a2.169,2.169,0,0,1-1.362-1.9l-.121-2.057a2.178,2.178,0,0,1,2.273-2.308l1.735.078a10.048,10.048,0,0,1,6.768,1.145Z" transform="translate(-282.432 -118.538)" fill="#ffb573"/>
      <path id="Path_11240" data-name="Path 11240" d="M358.728,164.334a46.174,46.174,0,0,1-4.018,5.692,41.548,41.548,0,0,1-4.92,5.041,61.957,61.957,0,0,1-11.228,7.506l-.356.191a3.835,3.835,0,0,1-2.6.4c-1.944-.382-3.879-.868-5.814-1.31s-3.844-1.024-5.753-1.623-3.8-1.241-5.675-1.987c-.937-.373-1.857-.781-2.785-1.2s-1.8-.868-2.829-1.406a2.447,2.447,0,0,1,1.675-4.538l.234.052,2.647.538c.92.182,1.848.33,2.777.486q2.785.469,5.6.868c1.866.278,3.749.495,5.632.738l5.649.633-2.976.59a70.365,70.365,0,0,0,9.293-7.159,44.439,44.439,0,0,0,3.783-4.1,54.351,54.351,0,0,0,3.323-4.59h0a4.92,4.92,0,0,1,8.33,5.206Z" transform="translate(-283.649 -116.669)" fill="#ffb573"/>
      <path id="Path_11241" data-name="Path 11241" d="M325.291,159.38c-1.328,7.011-2.161,21.424,1.735,49.955h34.709a203.332,203.332,0,0,1,.555-47.9,8.738,8.738,0,0,0-7.9-9.892c-.746-.061-1.5-.113-2.247-.148a126.961,126.961,0,0,0-14.751,0c-1.631.148-3.228.382-4.651.633a9.207,9.207,0,0,0-7.454,7.35Z" transform="translate(-285.328 -115.889)" fill="#ca1221"/>
      <path id="Path_11242" data-name="Path 11242" d="M336.684,391.27l-.3,7.749h6.5l.3-7.749Z" transform="translate(-286.942 -147.646)" opacity="0.2"/>
      <path id="Path_11243" data-name="Path 11243" d="M354.885,126.667c-1.666,6.23-2.334,9.953-6.17,12.547-5.779,3.887-13.016-.581-13.207-7.176-.2-5.944,2.56-15.124,9.241-16.383a8.8,8.8,0,0,1,10.135,11.011Z" transform="translate(-286.825 -111.168)" fill="#ffb573"/>
      <path id="Path_11244" data-name="Path 11244" d="M339.282,127.179c-1.111-2.456.382-6.5,2.213-7.584-1.354-1.093-2.742-2.161-2.213-4.755s5.632-5.831,8.677-3.566,14.9-1.154,11.237,7.133c8.191,3.089-2.169,15.749-7.567,18.986S341.659,134.216,339.282,127.179Z" transform="translate(-287.275 -110.508)" fill="#263238"/>
      <path id="Path_11245" data-name="Path 11245" d="M361,118.912s3.228-.772,3.566-5.3C367.222,117.8,365.677,119.875,361,118.912Z" transform="translate(-290.198 -110.919)" fill="#263238"/>
      <path id="Path_11246" data-name="Path 11246" d="M343.817,128.108a7.306,7.306,0,0,1-2.516,3.939c-1.657,1.3-2.95.1-2.881-1.814.061-1.735,1-4.477,2.846-5.041S344.251,126.225,343.817,128.108Z" transform="translate(-287.211 -112.435)" fill="#ffb573"/>
      <path id="Path_11247" data-name="Path 11247" d="M413.308,379.134l-5.753,2.777-7.775-13.224,5.753-2.777Z" transform="translate(-295.328 -144.291)" fill="#ffb573"/>
      <path id="Path_11248" data-name="Path 11248" d="M404.673,384.491c-.625.564-1.284,1.015-1.735.868-.148,0-.338-.165-.4-.538a.868.868,0,0,1,.139-.616c.625-.963,3.1-1.458,3.2-1.475a.13.13,0,0,1,.148.069.173.173,0,0,1,0,.182,11.828,11.828,0,0,1-1.354,1.51Zm-1.536-.3a1.2,1.2,0,0,0-.2.226.564.564,0,0,0-.1.373c0,.226.13.278.191.3.477.13,1.735-.972,2.49-1.918a6.551,6.551,0,0,0-2.369,1.024Z" transform="translate(-295.691 -146.516)" fill="#ca1221"/>
      <path id="Path_11249" data-name="Path 11249" d="M406.06,382.839h-.052c-.8.243-2.8.174-3.167-.495-.087-.156-.121-.408.165-.729a1.024,1.024,0,0,1,.79-.356c1.024,0,2.23,1.25,2.282,1.31a.173.173,0,0,1,0,.148.148.148,0,0,1-.017.122Zm-2.785-1.033-.061.069c-.191.208-.139.3-.121.338.217.4,1.675.564,2.56.417a3.306,3.306,0,0,0-1.857-1.024.807.807,0,0,0-.521.2Z" transform="translate(-295.724 -146.322)" fill="#ca1221"/>
      <path id="Path_11250" data-name="Path 11250" d="M405.507,380.973l5.25-4.772a.529.529,0,0,1,.685,0l4.477,3.731a1.033,1.033,0,0,1,0,1.545c-1.918,1.683-4.746,4.052-7.133,6.213-2.777,2.525-2.994,2.994-6.256,5.961-1.978,1.788-4.174.148-3.471-.8,3.08-4.339,4.018-5.31,5.605-10.413a3.176,3.176,0,0,1,.842-1.466Z" transform="translate(-295.215 -145.636)" fill="#263238"/>
      <path id="Path_11251" data-name="Path 11251" d="M399.78,368.7l4.009,6.812,5.753-2.777-4-6.82Z" transform="translate(-295.328 -144.291)" opacity="0.2"/>
      <path id="Path_11252" data-name="Path 11252" d="M341.62,218.2s10.864,49.894,15.02,68.412c4.556,20.279,35.178,67.839,35.178,67.839l10.569-5.527s-19.654-40.072-27.264-63.344c-3.384-21.693-11.09-67.362-11.09-67.362Z" transform="translate(-287.635 -124.753)" fill="#ca1221"/>
      <path id="Path_11253" data-name="Path 11253" d="M341.62,218.2s10.864,49.894,15.02,68.412c4.556,20.279,35.178,67.839,35.178,67.839l10.569-5.527s-19.654-40.072-27.264-63.344c-3.384-21.693-11.09-67.362-11.09-67.362Z" transform="translate(-287.635 -124.753)" opacity="0.5"/>
      <path id="Path_11254" data-name="Path 11254" d="M396.14,371.841c-.043,0,2.36,3.87,2.36,3.87l12.365-6.517-1.267-3.9Z" transform="translate(-294.846 -144.209)" fill="#ca1221"/>
      <path id="Path_11255" data-name="Path 11255" d="M348.8,244.844c8.174,1.085,9.12,29.9,8.972,46.805-.113-.538-.234-1.041-.338-1.527-2.265-10.109-6.534-29.589-9.944-45.183a2.855,2.855,0,0,1,1.31-.1Z" transform="translate(-288.411 -128.273)" opacity="0.3"/>
      <path id="Path_11256" data-name="Path 11256" d="M327.246,218.2s-1.571,48.593-1.024,68.368c.564,20.574,6.074,88.057,6.074,88.057h11.072s1.458-66.251,2.673-86.486c1.31-22.058,4.078-69.939,4.078-69.939Z" transform="translate(-285.583 -124.753)" fill="#ca1221"/>
      <path id="Path_11257" data-name="Path 11257" d="M327.246,218.2s-1.571,48.593-1.024,68.368c.564,20.574,6.074,88.057,6.074,88.057h11.072s1.458-66.251,2.673-86.486c1.31-22.058,4.078-69.939,4.078-69.939Z" transform="translate(-285.583 -124.753)" opacity="0.5"/>
      <path id="Path_11258" data-name="Path 11258" d="M331.709,393.42c-.052,0,.243,4.564.243,4.564h13.389l.694-4.07Z" transform="translate(-286.323 -147.93)" fill="#ca1221"/>
      <path id="Path_11259" data-name="Path 11259" d="M289.466,184.886a1.8,1.8,0,0,1,1.362,1.171l.477,1.362a1.787,1.787,0,0,1-.529,1.961l-2.412,2.048a4.061,4.061,0,0,1-2.464.946l-3.74.1a2.169,2.169,0,0,1-1.874-1.4l-.738-1.926a2.178,2.178,0,0,1,1.475-2.881l1.657-.443a10.014,10.014,0,0,1,6.786-.946Z" transform="translate(-279.405 -120.317)" fill="#ffb573"/>
      <path id="Path_11260" data-name="Path 11260" d="M329.731,162.261c-.72,2.647-1.519,5.284-2.317,7.922s-1.666,5.258-2.6,7.87-1.892,5.206-2.976,7.81c-.538,1.31-1.1,2.6-1.735,3.948a37.891,37.891,0,0,1-2.239,4.113l-.2.312a3.983,3.983,0,0,1-3.974,1.8c-1.093-.174-2.187-.321-3.271-.529s-2.161-.425-3.237-.712-2.135-.555-3.193-.911-2.1-.712-3.132-1.111a44.03,44.03,0,0,1-6-2.933,32.73,32.73,0,0,1-2.8-1.866c-.46-.33-.868-.686-1.345-1.05-.226-.182-.443-.364-.659-.573s-.408-.382-.7-.677a2.421,2.421,0,0,1,2.768-3.9l.4.2,1.128.573c.417.2.868.408,1.276.59.868.382,1.735.7,2.655,1.024a52.53,52.53,0,0,0,5.51,1.579c1.866.416,3.757.746,5.658.989.937.139,1.909.191,2.855.3l2.872.182-4.165,2.1a29.718,29.718,0,0,0,1.423-3.185c.46-1.171.92-2.386,1.354-3.618.868-2.473,1.675-5.015,2.482-7.567l2.36-7.705,2.343-7.749a4.921,4.921,0,0,1,9.467,2.69Z" transform="translate(-280.623 -116.514)" fill="#ffb573"/>
      <path id="Path_11261" data-name="Path 11261" d="M338.965,159.113c2.6,8.573-8.677,20.322-8.677,20.322l-12.348-5.866s1.388-10.2,6.612-16.313C331.008,149.715,336.987,152.6,338.965,159.113Z" transform="translate(-284.502 -116.098)" fill="#ca1221"/>
    </g>
    <g id="freepik--character-1--inject-2" transform="translate(97.736 103.517)">
      <path id="Path_11262" data-name="Path 11262" d="M178.946,219.69c5.076,4.755,6,9.042,5.319,14.751s-8.3,7.419-8.3,7.419l.659-20.825Z" transform="translate(-121.013 -125.301)" fill="#263238"/>
      <path id="Path_11263" data-name="Path 11263" d="M160.094,405.531l6.95-.1-.434-16.157-6.95.1Z" transform="translate(-118.855 -147.732)" fill="#ffc3bd"/>
      <path id="Path_11264" data-name="Path 11264" d="M166.919,407l-7.593.121a.538.538,0,0,0-.538.486l-.659,6.2a1.128,1.128,0,0,0,1.145,1.224c2.733-.087,6.673-.312,10.118-.364,4.026-.061,3.627.1,8.356,0,2.846-.043,3.306-2.942,2.083-3.185-5.571-1.111-6.135-1.171-11.168-4a3.532,3.532,0,0,0-1.744-.486Z" transform="translate(-118.652 -150.078)" fill="#263238"/>
      <path id="Path_11265" data-name="Path 11265" d="M175.491,161.73c2.8,3.471,5.788,7.1,8.764,10.534s6.074,6.829,9.233,9.866l.59.555.3.286.148.139h0l-.052-.043-.121-.087a2.421,2.421,0,0,0-.868-.338.581.581,0,0,0-.3,0h.555a9.406,9.406,0,0,0,1.154-.312,36.314,36.314,0,0,0,5.6-2.742c3.835-2.221,7.74-4.833,11.532-7.41l3.532,3.861a80.7,80.7,0,0,1-10.447,10.222,37.633,37.633,0,0,1-6.6,4.339,17.593,17.593,0,0,1-2.169.868,10.525,10.525,0,0,1-2.916.564,7.619,7.619,0,0,1-2.048-.174,6.855,6.855,0,0,1-2.438-1.041l-.3-.208-.208-.156-.182-.148-.373-.3-.738-.59c-1.961-1.579-3.8-3.237-5.562-4.929s-3.471-3.471-5.12-5.206a141.3,141.3,0,0,1-9.354-11.133Z" transform="translate(-119.839 -117.635)" fill="#ffc3bd"/>
      <path id="Path_11266" data-name="Path 11266" d="M162.808,164.014c-.521,6.716,15.871,20.591,15.871,20.591l11.194-11.619a81.513,81.513,0,0,0-12.148-13.12C170.973,154.373,163.372,156.647,162.808,164.014Z" transform="translate(-119.27 -116.986)" fill="#ca1221"/>
      <path id="Path_11267" data-name="Path 11267" d="M172.971,171.316c2.9.486,9.606,8.157,9.857,11.671l-3.4,3.532a100.969,100.969,0,0,1-10.977-11.011C169.795,173.156,171.444,171.039,172.971,171.316Z" transform="translate(-120.018 -118.9)" opacity="0.2"/>
      <path id="Path_11268" data-name="Path 11268" d="M219.415,178.835l7.974-.321-1.666-7.757s-6.17-.573-7.914,4.287Z" transform="translate(-126.547 -118.826)" fill="#ffc3bd"/>
      <path id="Path_11269" data-name="Path 11269" d="M234.479,174.045l-2-3.159a1.588,1.588,0,0,0-1.545-.729l-4,.495,1.666,7.757,5.12-2.039a1.6,1.6,0,0,0,.764-2.326Z" transform="translate(-127.753 -118.748)" fill="#ffc3bd"/>
      <path id="Path_11270" data-name="Path 11270" d="M166.61,389.27l.226,8.33-6.959.113-.217-8.33Z" transform="translate(-118.855 -147.732)" opacity="0.2"/>
      <path id="Path_11271" data-name="Path 11271" d="M167.333,156.9a87.432,87.432,0,0,0-33.607,2.412,2.4,2.4,0,0,0-1.735,2.855c5.84,25.8,3.41,52.5,3.861,58.025l37.26-.6c2.655-31.8-.4-51.76-1.892-59.049a4.625,4.625,0,0,0-3.887-3.644Z" transform="translate(-115.187 -116.91)" fill="#ca1221"/>
      <path id="Path_11272" data-name="Path 11272" d="M142.874,157.25l-1.735.417a.278.278,0,0,0-.121.469c6.465,5.944,32.453,37.147,33.208,63.4h2.247c-.764-26.639-27.42-59.005-33.39-64.212A.243.243,0,0,0,142.874,157.25Z" transform="translate(-116.378 -117.042)" fill="#263238"/>
      <path id="Path_11273" data-name="Path 11273" d="M139.4,173.62c.573,2.56-.633,14.239-3.419,17.12-.226-3.74-.564-7.645-1.05-11.636Z" transform="translate(-115.584 -119.208)" opacity="0.2"/>
      <path id="Path_11274" data-name="Path 11274" d="M146.67,137c1.18,5.007,2.516,13.953-.92,17.606,2.872,2.534,6.6,5.736,12.66,5.5s4.92-4.339,3.245-6.4c-5.736-.928-5.805-5.137-4.963-9.155Z" transform="translate(-117.015 -114.364)" fill="#ffc3bd"/>
      <path id="Path_11275" data-name="Path 11275" d="M151.5,140.59l5.927,4.469a16.99,16.99,0,0,0-.382,2.837c-2.178-.156-5.206-2.308-5.562-4.556a7.627,7.627,0,0,1,.017-2.751Z" transform="translate(-117.758 -114.839)" opacity="0.2"/>
      <path id="Path_11276" data-name="Path 11276" d="M144.848,126.625c.868,6.846,1.041,10.907,4.746,14.179,5.579,4.92,13.884,1.137,15.064-5.848,1.076-6.291-.529-16.435-7.454-18.673a9.545,9.545,0,0,0-12.356,10.343Z" transform="translate(-116.885 -111.564)" fill="#ffc3bd"/>
      <path id="Path_11277" data-name="Path 11277" d="M167.809,116.378a3.471,3.471,0,0,1,2.143,2.239.642.642,0,0,1-.868.729c-3.7-1.579-12.565-.928-12.565-.928S164.165,115.146,167.809,116.378Z" transform="translate(-118.44 -111.599)" fill="#ca1221"/>
      <path id="Path_11278" data-name="Path 11278" d="M167.809,116.378a3.471,3.471,0,0,1,2.143,2.239.642.642,0,0,1-.868.729c-3.7-1.579-12.565-.928-12.565-.928S164.165,115.146,167.809,116.378Z" transform="translate(-118.44 -111.599)" opacity="0.2"/>
      <path id="Path_11279" data-name="Path 11279" d="M145.654,132.6l3.037-.573s2.6-5.927-.434-7.766c3.471-3.627,15.8-1.128,13.771-5.345-1.666-3.471-9.441-5.536-15.619-3.263s-5.441,5.206-5.441,5.206-4.842,3.662-1.067,7.974C139.944,130.692,143.562,133.469,145.654,132.6Z" transform="translate(-116.051 -111.414)" fill="#263238"/>
      <path id="Path_11280" data-name="Path 11280" d="M138.942,128.343a.564.564,0,0,0,.868-.052c1.25-1.588,5.432-6.517,10.638-8.59a30.752,30.752,0,0,1,9.814-2.282.564.564,0,0,0,.469-.868,21.224,21.224,0,0,0-3.02-4.512c-1.371-1.232-11.211-1.788-14.083.1-1.935,1.284-7.393,6.768-7.61,9.424C135.853,123.432,136.989,126.243,138.942,128.343Z" transform="translate(-115.726 -110.913)" fill="#ca1221"/>
      <path id="Path_11281" data-name="Path 11281" d="M138.942,128.343a.564.564,0,0,0,.868-.052c1.25-1.588,5.432-6.517,10.638-8.59a30.752,30.752,0,0,1,9.814-2.282.564.564,0,0,0,.469-.868,21.224,21.224,0,0,0-3.02-4.512c-1.371-1.232-11.211-1.788-14.083.1-1.935,1.284-7.393,6.768-7.61,9.424C135.853,123.432,136.989,126.243,138.942,128.343Z" transform="translate(-115.726 -110.913)" fill="#fff" opacity="0.3"/>
      <path id="Path_11282" data-name="Path 11282" d="M147.14,123.115a22.023,22.023,0,0,1,11.28-2.308,2.334,2.334,0,0,0,2.143-1.145,6.869,6.869,0,0,1,5.354-3.159.148.148,0,1,0,0-.3C161.77,115.132,149.092,118.343,147.14,123.115Z" transform="translate(-117.199 -111.586)" fill="#ca1221"/>
      <path id="Path_11283" data-name="Path 11283" d="M141.527,135.607a6.491,6.491,0,0,0,4.087,2.881c2.247.486,3.254-1.562,2.534-3.61-.651-1.848-2.6-4.339-4.816-3.9a2.976,2.976,0,0,0-1.8,4.625Z" transform="translate(-116.385 -113.561)" fill="#ffc3bd"/>
      <path id="Path_11284" data-name="Path 11284" d="M153.4,298.382c.278-35.021-7.471-68.663-7.471-68.663l29.043-.469s-3.341,50.588-4.5,71.778c-1.206,22.032-2.89,73.757-2.89,73.757l-11.792.182S151.77,326.027,153.4,298.382Z" transform="translate(-117.039 -126.566)" fill="#263238"/>
      <path id="Path_11285" data-name="Path 11285" d="M152.743,251.716c8.278,11.333,4.556,32.653,1.163,47.725a323.553,323.553,0,0,0-4.226-49.591Z" transform="translate(-117.535 -129.291)" opacity="0.2"/>
      <path id="Path_11286" data-name="Path 11286" d="M155.59,392.206l.746,4.538,13.294-.217.772-4.807Z" transform="translate(-118.317 -148.056)" fill="#ca1221"/>
      <path id="Path_11287" data-name="Path 11287" d="M158.36,129.428c0,.564.364,1,.729.963s.633-.5.6-1.059-.364-.989-.729-.963S158.325,128.917,158.36,129.428Z" transform="translate(-118.683 -113.222)" fill="#263238"/>
      <path id="Path_11288" data-name="Path 11288" d="M165.73,128.887c0,.564.364.989.729.963s.633-.5.6-1.059-.364-1-.729-.972S165.695,128.323,165.73,128.887Z" transform="translate(-119.658 -113.149)" fill="#263238"/>
      <path id="Path_11289" data-name="Path 11289" d="M163.25,129.54a19.784,19.784,0,0,0,2.994,4.6,3.245,3.245,0,0,1-2.6.694Z" transform="translate(-119.33 -113.377)" fill="#ed847e"/>
      <path id="Path_11290" data-name="Path 11290" d="M159.841,137.284a4.556,4.556,0,0,1-3.289-1.6.163.163,0,0,1,.226-.234,4.434,4.434,0,0,0,3.74,1.466.165.165,0,1,1,.017.33A5.112,5.112,0,0,1,159.841,137.284Z" transform="translate(-118.438 -114.153)" fill="#263238"/>
      <path id="Path_11291" data-name="Path 11291" d="M153.714,126.265a.555.555,0,0,1-.156-.052.338.338,0,0,1-.1-.46,3.289,3.289,0,0,1,2.6-1.553.33.33,0,0,1,.33.33.338.338,0,0,1-.33.33h0a2.6,2.6,0,0,0-2.039,1.25.338.338,0,0,1-.312.156Z" transform="translate(-118.028 -112.671)" fill="#263238"/>
      <path id="Path_11292" data-name="Path 11292" d="M167.7,125.1a.33.33,0,0,1-.278-.139,2.6,2.6,0,0,0-2.1-1.111.33.33,0,0,1,0-.659,3.211,3.211,0,0,1,2.664,1.38.33.33,0,0,1-.069.46.365.365,0,0,1-.217.069Z" transform="translate(-119.56 -112.537)" fill="#263238"/>
      <path id="Path_11293" data-name="Path 11293" d="M169.7,407.432a.159.159,0,0,1-.026-.3c.312-.174,3.089-1.631,3.939-1.18a.538.538,0,0,1,.278.434h0a.868.868,0,0,1-.3.807c-.746.694-2.751.451-3.879.243Zm3.7-1.206c-.529-.174-2.03.425-3.132.972,1.545.234,2.69.148,3.115-.243a.6.6,0,0,0,.191-.529.191.191,0,0,0-.113-.174Z" transform="translate(-120.168 -149.928)" fill="#ca1221"/>
      <path id="Path_11294" data-name="Path 11294" d="M169.7,407.189h-.043a.148.148,0,0,1-.069-.148,4.683,4.683,0,0,1,1.033-2.7,1.232,1.232,0,0,1,.911-.3h0c.46.043.59.269.625.451.139.79-1.5,2.326-2.334,2.716a.148.148,0,0,1-.121-.017Zm1.97-2.8h-.165a.868.868,0,0,0-.668.226,3.861,3.861,0,0,0-.868,2.161c.868-.529,1.961-1.735,1.874-2.2a.223.223,0,0,0-.165-.182Zm-.148-.2Z" transform="translate(-120.168 -149.686)" fill="#ca1221"/>
      <path id="Path_11295" data-name="Path 11295" d="M115.97,405.531l6.968-.1L124.6,389.27l-6.959.1Z" transform="translate(-113.076 -147.732)" fill="#ffc3bd"/>
      <path id="Path_11296" data-name="Path 11296" d="M123.248,407l-7.593.121a.529.529,0,0,0-.538.486l-.668,6.2a1.137,1.137,0,0,0,1.145,1.224c2.733-.087,3.592-.312,7.037-.365,4.026-.061,2.169.1,6.89,0,2.855-.043,3.315-2.933,2.091-3.185-3.87-.816-4.885-2.352-6.629-4a2.482,2.482,0,0,0-1.735-.486Z" transform="translate(-112.875 -150.076)" fill="#263238"/>
      <path id="Path_11297" data-name="Path 11297" d="M124.727,389.27l-.859,8.33-6.968.113.859-8.33Z" transform="translate(-113.199 -147.732)" opacity="0.2"/>
      <path id="Path_11298" data-name="Path 11298" d="M125.051,297.532c3.948-31.308,1.735-52.272,8.617-67.683l24.617-.4s-12.625,49.46-17.433,70.355c-4.989,21.693-14.474,72.889-14.474,72.889l-11.228.165S119.8,323.468,125.051,297.532Z" transform="translate(-112.968 -126.592)" fill="#263238"/>
      <path id="Path_11299" data-name="Path 11299" d="M113.76,392.206l.712,4.538,12.53-.217.729-4.807Z" transform="translate(-112.784 -148.056)" fill="#ca1221"/>
      <path id="Path_11300" data-name="Path 11300" d="M122.973,407.152a.165.165,0,0,1-.148-.087.174.174,0,0,1,0-.191c.243-.269,2.343-2.6,3.306-2.456a.521.521,0,0,1,.408.312h0a.937.937,0,0,1,0,.868c-.469.868-2.43,1.362-3.558,1.553Zm3.063-2.412c-.555,0-1.735,1.1-2.6,1.987,1.527-.312,2.6-.781,2.837-1.293a.59.59,0,0,0,0-.564.2.2,0,0,0-.165-.122Z" transform="translate(-113.979 -149.735)" fill="#ca1221"/>
      <path id="Path_11301" data-name="Path 11301" d="M122.948,407.015h0a.173.173,0,0,1-.121-.113c0-.078-.521-1.9.052-2.89a1.189,1.189,0,0,1,.746-.6h0c.443-.113.651.052.738.217.408.686-.607,2.69-1.258,3.341a.191.191,0,0,1-.156.043Zm.868-3.315h-.174a.868.868,0,0,0-.547.434,3.87,3.87,0,0,0-.1,2.334c.616-.79,1.25-2.3,1.015-2.707A.191.191,0,0,0,123.816,403.7Zm-.217-.13Z" transform="translate(-113.954 -149.598)" fill="#ca1221"/>
      <path id="Path_11302" data-name="Path 11302" d="M156.042,198.186a2.161,2.161,0,0,0-.182-2.551l-1.223-1.345a.659.659,0,0,1-.1-.738,1.605,1.605,0,0,0-2.022-2.221.659.659,0,0,1-.729-.165l-1.223-1.345a2.178,2.178,0,0,0-2.534-.417l-.364.165,4.1,4.486,4.1,4.512Z" transform="translate(-117.268 -121.264)" fill="#fff"/>
      <rect id="Rectangle_676" data-name="Rectangle 676" width="24.609" height="32.748" transform="translate(26.508 63.428) rotate(47.61)" fill="#263238"/>
      <path id="Path_11303" data-name="Path 11303" d="M136.294,170.334c-2.152,4.122-4.339,8.356-6.439,12.547s-4.182,8.408-6.074,12.617c-.46,1.05-.928,2.1-1.336,3.15l-.321.781-.078.2h0a2.837,2.837,0,0,0-.156-.59c-.121-.3-.338-.443-.33-.39s.121.2.382.364a9.545,9.545,0,0,0,2.291,1.033,41.518,41.518,0,0,0,6.326,1.38c1.128.165,2.265.321,3.41.46l3.471.356.382,5.206c-1.284.278-2.49.46-3.74.625s-2.5.3-3.766.364-2.551.1-3.853.069a28.635,28.635,0,0,1-4.044-.356,16.9,16.9,0,0,1-4.486-1.284,10.231,10.231,0,0,1-2.6-1.649,8.1,8.1,0,0,1-2.282-3.349,8.608,8.608,0,0,1-.078-5.007l.113-.4.069-.226.3-.868c.382-1.215.8-2.386,1.223-3.558,1.735-4.668,3.662-9.137,5.718-13.554s4.252-8.677,6.647-13.016Z" transform="translate(-112.635 -118.099)" fill="#ffc3bd"/>
      <path id="Path_11304" data-name="Path 11304" d="M131.079,160.031c-6.439,1.987-13.189,19.151-13.189,19.151l14.005,7.81a132.084,132.084,0,0,0,6.942-15.229C142.126,162.9,138.863,157.619,131.079,160.031Z" transform="translate(-113.33 -117.333)" fill="#ca1221"/>
      <path id="Path_11305" data-name="Path 11305" d="M150.169,211.18l-2.742-1.831a5.032,5.032,0,0,0-2.022-.79l-4.061-.625a2.864,2.864,0,0,0-2.829,1.232l-1.388,2.039c-.4,3.471,5.8,5.206,5.8,5.206l3.185,1.51a2.447,2.447,0,0,0,3.054-.816l1.735-2.473a2.447,2.447,0,0,0-.729-3.454Z" transform="translate(-115.872 -123.742)" fill="#ffc3bd"/>
    </g>
    <g id="freepik--Pack--inject-2" transform="translate(175.151 91.301)">
      <line id="Line_95" data-name="Line 95" x1="0.434" y2="5.007" transform="translate(73.644 21.984)" fill="none" stroke="#ca1221" stroke-miterlimit="10" stroke-width="1"/>
      <path id="Path_11306" data-name="Path 11306" d="M281.18,100.41l6.855.607-1.258,14.222" transform="translate(-212.343 -97.308)" fill="none" stroke="#ca1221" stroke-miterlimit="10" stroke-width="1"/>
      <rect id="Rectangle_677" data-name="Rectangle 677" width="69.132" height="45.703" transform="matrix(0.996, 0.087, -0.087, 0.996, 4.005, 0)" fill="#ca1221"/>
      <rect id="Rectangle_678" data-name="Rectangle 678" width="10.56" height="9.259" transform="matrix(0.996, 0.087, -0.087, 0.996, 25.188, 1.866)" fill="#fff" opacity="0.2"/>
      <rect id="Rectangle_679" data-name="Rectangle 679" width="10.725" height="9.406" transform="matrix(0.996, 0.087, -0.087, 0.996, 5.064, 32.613)" fill="#fff" opacity="0.2"/>
      <g id="Group_8684" data-name="Group 8684" transform="translate(17.754 33.82)" opacity="0.2">
        <path id="Path_11307" data-name="Path 11307" d="M223.69,136.469l9.458.868-.712,8.148-9.467-.868.72-8.148m-.564-.659-.816,9.363,10.682.946.824-9.371-10.69-.937Z" transform="translate(-222.31 -135.81)" fill="#fff"/>
      </g>
      <rect id="Rectangle_680" data-name="Rectangle 680" width="16.053" height="45.703" transform="matrix(0.996, 0.087, -0.087, 0.996, 56.877, 4.644)" opacity="0.1"/>
      <path id="Path_11308" data-name="Path 11308" d="M201.85,147.569l68.863,6.057,1.545-17.545Z" transform="translate(-201.85 -102.026)" opacity="0.1"/>
    </g>
  </g>
</svg>
